# xmcd
#
# Track frame offsets:
#	150
#	14811
#	26816
#	42377
#
# Disc length: 727 seconds
#
# Revision: 1
# Processed by: cddbd v1.5.1PL0 Copyright (c) Steve Scherf et al.
# Submitted via: audiograbber 1.83.01
#
DISCID=3202d504
DTITLE=Laura FORD - I'm not Britney
DYEAR=2004
DGENRE=Country
TTITLE0=I'm not Britney
TTITLE1=Misty Blue
TTITLE2=Jump out on the second road and dance with me
TTITLE3=Crazy
EXTD=
EXTT0=
EXTT1=
EXTT2=
EXTT3=
PLAYORDER=
